<svg width="319" height="301" viewBox="0 0 319 301" fill="none" xmlns="http://www.w3.org/2000/svg">
<g filter="url(#filter0_d_45_1912)">
<path d="M184.618 125.994C185.689 126.549 186.497 126.88 187.265 127.311C194.883 130.896 202.399 134.439 210.017 138.025C212.502 139.159 212.833 141.268 211.005 143.188C210.423 143.762 209.88 144.236 209.237 144.669C197.674 153.281 185.217 160.016 171.765 164.835C160.426 168.779 149.413 173.669 138.563 178.742C132.484 181.591 126.344 184.298 120.102 186.965C114.284 189.456 108.608 192.47 103.196 195.708C97.542 198.963 91.6036 201.753 85.6652 204.544C84.0749 205.285 82.2004 205.562 80.4058 205.639C78.8931 205.6 77.0562 205.195 75.722 204.416C71.3954 201.715 70.5923 197.556 73.8035 193.648C75.8708 191.129 78.4242 189.157 80.8555 186.904C81.7599 186.113 82.7654 185.365 83.5688 184.533C96.6651 171.211 109.7 157.748 122.797 144.426C130.429 136.526 137.981 128.825 145.696 121.307C159.438 108.133 175.679 99.582 194.338 95.2706C197.3 94.627 200.222 94.0831 203.285 93.4809C201.302 91.9723 200.314 91.7993 199.512 93.2121C198.401 92.757 197.29 92.3018 196.179 91.8466C195.169 91.4328 194.26 91.0604 193.913 89.8733C193.769 89.3504 193.041 88.8199 192.496 88.7127C190.295 88.0432 187.953 87.4319 185.753 86.7624C185.006 86.5724 184.259 86.3825 183.552 86.0928C182.744 85.7618 181.292 85.8635 181.468 84.5428C181.623 82.9814 183.096 83.1205 184.186 83.3349C187.294 83.7955 190.401 84.2562 193.429 84.9163C201.866 86.748 210.626 88.3633 219.028 91.4573C221.391 92.3093 223.674 93.3608 225.957 94.4122C228.705 95.7703 229.257 97.6214 228.139 100.413C227.42 102.208 226.316 103.497 224.747 104.479C221.93 106.227 219.215 108.016 216.377 109.523C206.737 114.511 197.035 119.358 187.395 124.346C186.509 124.796 185.724 125.287 184.618 125.994Z" fill="url(#paint0_linear_45_1912)"/>
<path d="M155.131 129.693C162.955 132.41 170.778 135.126 178.496 137.799C181.09 138.739 183.641 139.784 186.235 140.725C187.83 141.378 189.192 142.303 189.454 144.121C189.674 146.044 188.725 147.487 187.115 148.416C185.76 149.327 184.234 150.046 182.75 150.66C148.631 166.005 114.811 181.84 81.8679 199.5C79.8551 200.509 77.8422 201.517 75.723 202.481C74.3037 203.244 72.7977 203.604 71.3488 202.278C70.0062 200.994 70.1274 199.456 70.716 197.986C72.2938 194.356 73.978 190.77 75.7684 187.227C79.3716 180.395 83.1231 173.502 86.7263 166.67C90.7721 159.041 94.5632 151.431 98.7154 143.846C102.994 135.947 107.549 128.283 111.998 120.576C114.001 117.12 115.898 113.621 117.985 109.955C116.815 109.476 115.752 109.04 114.795 108.648C111.563 107.447 108.183 106.306 104.993 105C101.059 103.388 100.582 100.871 103.5 97.9124C105.34 96.1003 107.286 94.3318 109.339 92.6069C112.069 90.4264 115.011 88.3331 117.806 86.3011C126.082 80.1618 134.465 74.0659 142.635 67.883C145.578 65.7897 148.251 65.2964 151.483 66.4981C156.671 68.379 161.9 70.1548 167.088 72.0357C178.887 76.2586 190.793 80.5252 202.551 84.8531C205.676 86.0113 208.76 87.2744 211.737 88.494C212.8 88.9296 213.757 89.3216 214.736 89.9671C218.141 91.9728 218.64 94.7431 215.806 97.4919C214.538 98.8049 213.034 99.7773 211.489 100.855C201.303 107.434 190.455 112.886 179.543 118.19C172.359 121.601 164.941 124.671 157.587 127.889C156.697 128.258 155.807 128.626 154.981 129.143C155.045 129.291 155.109 129.44 155.131 129.693Z" fill="#FBFBFB"/>
<path d="M118.197 110.041C116.921 109.518 115.964 109.126 114.9 108.691C111.711 107.384 108.331 106.243 105.141 104.937C101.419 103.412 100.836 100.852 103.606 97.9545C105.297 96.2038 107.201 94.5403 109.212 92.9203C112.09 90.6784 115.033 88.5851 117.869 86.4482C126.294 80.2474 134.677 74.1515 142.889 67.8636C145.577 65.7881 148.357 65.3384 151.588 66.5402C156.67 68.3774 161.793 70.1098 166.874 71.9471C178.78 76.2136 190.644 80.5851 202.657 84.8951C205.676 86.0098 208.653 87.2294 211.63 88.449C212.481 88.7974 213.331 89.1459 214.14 89.5993C218.437 91.8486 218.981 95.1258 215.193 98.0945C212.082 100.608 208.588 102.842 205.071 104.822C191.09 112.534 176.98 119.949 162.186 125.984C159.812 126.967 157.544 127.993 154.873 129.098C156.003 130.294 157.341 130.353 158.404 130.789C167.185 133.897 176.072 137.049 184.852 140.157C185.596 140.462 186.383 140.662 187.191 141.115C189.936 142.606 190.5 145.525 188.173 147.626C186.882 148.686 185.314 149.51 183.788 150.229C171.815 155.709 159.842 161.189 147.868 166.67C126.741 176.464 105.87 186.851 85.2571 197.834C82.4183 199.359 79.4732 200.84 76.5702 202.216C75.9347 202.567 75.1928 202.874 74.5351 202.971C72.223 203.49 70.4131 202.138 70.616 199.777C70.8015 198.387 71.2417 196.979 71.8946 195.658C76.1284 187.252 80.4685 178.889 84.7666 170.631C89.5494 161.472 94.1839 152.374 99.1793 143.302C103.374 135.613 107.887 128.054 112.251 120.556C114.255 117.101 116.151 113.601 118.197 110.041ZM78.7689 194.565C78.9395 194.757 79.1101 194.949 79.3227 195.036C111.989 177.14 145.938 161.602 179.862 145.199C177.629 144.285 175.97 143.483 174.227 142.891C165.829 140.062 157.497 137.381 149.099 134.552C148.207 134.308 147.356 133.96 146.548 133.507C143.42 131.736 143.153 128.695 145.925 126.409C147.174 125.455 148.699 124.736 150.225 124.017C158.998 120.036 167.965 116.501 176.61 112.223C187.119 106.998 197.223 101.24 207.498 95.6752C208.281 95.2633 209.043 94.5978 210.356 93.7918C207.698 92.7029 205.72 91.7703 203.658 91.0477C186.032 84.6825 168.407 78.3174 150.824 71.8473C149.293 71.3424 148.403 71.7108 147.345 72.499C139.068 78.6384 130.792 84.7778 122.515 90.9172C119.34 93.2819 116.165 95.6465 112.99 98.0112C112.27 98.5717 111.508 99.2371 110.514 100.174C111.79 100.696 112.747 101.089 113.598 101.437C116.723 102.595 119.891 103.648 122.826 104.973C125.548 106.21 126.129 108.159 124.717 110.757C122.504 114.738 120.142 118.779 117.822 122.716C112.973 131.115 108.059 139.365 103.422 147.851C96.3198 160.947 89.472 174.025 82.56 186.954C81.2963 189.491 80.0326 192.028 78.7689 194.565Z" fill="#2A4857"/>
</g>
<defs>
<filter id="filter0_d_45_1912" x="0.295166" y="0.854736" width="318.387" height="299.784" filterUnits="userSpaceOnUse" color-interpolation-filters="sRGB">
<feFlood flood-opacity="0" result="BackgroundImageFix"/>
<feColorMatrix in="SourceAlpha" type="matrix" values="0 0 0 0 0 0 0 0 0 0 0 0 0 0 0 0 0 0 127 0" result="hardAlpha"/>
<feOffset dx="10" dy="15"/>
<feGaussianBlur stdDeviation="40"/>
<feComposite in2="hardAlpha" operator="out"/>
<feColorMatrix type="matrix" values="0 0 0 0 0 0 0 0 0 0 0 0 0 0 0 0 0 0 0.15 0"/>
<feBlend mode="normal" in2="BackgroundImageFix" result="effect1_dropShadow_45_1912"/>
<feBlend mode="normal" in="SourceGraphic" in2="effect1_dropShadow_45_1912" result="shape"/>
</filter>
<linearGradient id="paint0_linear_45_1912" x1="229.858" y1="201.091" x2="7.8434" y2="91.7881" gradientUnits="userSpaceOnUse">
<stop stop-color="#F8D162"/>
<stop offset="1" stop-color="#F8D162" stop-opacity="0"/>
</linearGradient>
</defs>
</svg>
