<svg width="446" height="439" viewBox="0 0 446 439" fill="none" xmlns="http://www.w3.org/2000/svg">
<circle cx="72.5" cy="116.5" r="7.5" fill="#B1E2DC"/>
<path d="M309.767 219.5C309.767 266.656 270.928 304.898 223 304.898C175.073 304.898 136.233 266.656 136.233 219.5C136.233 172.344 175.073 134.102 223 134.102C270.928 134.102 309.767 172.344 309.767 219.5Z" stroke="#20B486" stroke-opacity="0.46" stroke-width="0.987514"/>
<path d="M365.786 220.03C365.786 297.347 302.107 360.037 223.538 360.037C144.97 360.037 81.2906 297.347 81.2906 220.03C81.2906 142.713 144.97 80.0226 223.538 80.0226C302.107 80.0226 365.786 142.713 365.786 220.03Z" stroke="#20B486" stroke-opacity="0.46" stroke-width="0.987514"/>
<path d="M407.801 219.5C407.801 319.949 325.07 401.393 223 401.393C120.93 401.393 38.1993 319.949 38.1993 219.5C38.1993 119.051 120.93 37.6072 223 37.6072C325.07 37.6072 407.801 119.051 407.801 219.5Z" stroke="#20B486" stroke-opacity="0.46" stroke-width="0.987514"/>
<path d="M445.506 219.5C445.506 340.447 345.894 438.506 223 438.506C100.106 438.506 0.493757 340.447 0.493757 219.5C0.493757 98.5535 100.106 0.493757 223 0.493757C345.894 0.493757 445.506 98.5535 445.506 219.5Z" stroke="#20B486" stroke-opacity="0.46" stroke-width="0.987514"/>
</svg>
