<svg width="124" height="138" viewBox="0 0 124 138" fill="none" xmlns="http://www.w3.org/2000/svg">
<path d="M37.2869 55.5077C37.0367 54.9436 36.9975 54.498 36.7383 54.2113C29.5284 41.4104 21.3816 29.3544 10.8154 19.0472C6.02659 14.3828 0.674441 10.5319 -4.8494 7.00825C-6.26879 6.07047 -7.73642 4.96441 -9.09858 3.91755C-9.56871 3.5125 -10.0871 2.93917 -10.3373 2.37514C-10.4338 2.03858 -10.3586 1.37476 -10.0814 1.1067C-9.80422 0.838631 -9.16239 0.916421 -8.84597 1.094C4.953 9.40293 17.4054 19.4978 26.8482 32.9871C31.6705 39.9296 36.3302 46.922 40.3301 54.3914C40.734 55.1829 41.3971 56.2611 42.0872 56.5071C51.0581 59.706 58.33 65.6228 64.7132 72.4528C74.6285 82.9595 84.0467 93.8933 93.6849 104.668C94.3087 105.301 94.9808 106.101 96.0928 106.584C94.5785 96.9797 92.9014 87.425 91.3388 77.6522C92.9569 77.4306 93.6862 78.1223 94.2438 79.1413C94.8497 80.3285 95.561 81.575 95.947 82.9212C97.9069 90.3754 99.8668 97.8295 101.664 105.334C102.041 106.957 102.092 108.681 102.039 110.345C101.825 113.614 99.5776 115.035 96.6064 113.933C90.8266 111.678 85.2096 109.372 79.5443 106.899C77.8477 106.229 77.2419 105.042 77.6605 103.724C78.1273 102.574 79.3807 102.006 81.1345 102.567C84.163 103.561 87.077 104.772 90.4218 105.943C90.0662 105.32 89.9697 104.984 89.7105 104.697C79.7379 94.2993 69.8226 83.7925 59.6301 73.5539C56.6163 70.4504 52.8855 67.9331 49.4801 65.3159C48.118 64.269 46.4214 63.5993 44.5229 62.5339C44.7551 63.6526 44.9963 64.494 45.1893 65.1671C47.0584 70.4523 48.3822 75.9962 48.6815 81.6711C48.8933 86.7322 48.1469 91.5379 45.6377 96.0603C44.731 97.5284 43.767 99.1055 42.5439 100.396C37.2025 106.153 29.4074 106.438 23.3529 101.063C15.7253 94.5234 9.91923 79.8273 16.7208 67.1234C20.4981 59.9237 26.6293 56.3044 34.4907 55.6329C35.3525 55.5517 36.3197 55.5297 37.2869 55.5077ZM42.6272 94.512C44.6966 90.3076 45.4733 86.2249 45.2345 81.9959C45.0766 75.2707 43.2434 68.8761 40.8649 62.7402C40.3735 61.3348 39.4242 60.8021 38.0923 60.4782C31.0502 59.0678 23.1865 63.1269 20.0207 69.6814C15.7586 78.5859 18.2378 91.5561 25.5972 98.0867C30.5005 102.533 36.3129 102.124 40.6601 97.2206C41.4434 96.2481 42.1784 95.1074 42.6272 94.512Z" fill="#244252"/>
</svg>
