<svg width="879" height="743" viewBox="0 0 879 743" fill="none" xmlns="http://www.w3.org/2000/svg">
<g filter="url(#filter0_d_81_1401)">
<path d="M428.757 140.928H286.779V337.76H428.757V140.928Z" stroke="#2D316B" stroke-width="0.779235" stroke-miterlimit="10"/>
<path d="M411.301 165.134H304.235V313.573H411.301V165.134Z" stroke="#2D316B" stroke-width="0.779235" stroke-miterlimit="10"/>
<path d="M689.026 242.575H590.099V379.711H689.026V242.575Z" stroke="#2D316B" stroke-width="0.779235" stroke-miterlimit="10"/>
<path d="M676.874 259.432H602.269V362.853H676.874V259.432Z" stroke="#2D316B" stroke-width="0.779235" stroke-miterlimit="10"/>
<path d="M815.958 502.265C815.958 502.265 817.887 495.399 817.887 494.955C818.62 489.747 816.961 479.255 811.657 476.69C810.765 476.29 809.799 476.083 808.822 476.081C807.844 476.079 806.878 476.283 805.984 476.68C805.091 477.076 804.291 477.657 803.637 478.383C802.983 479.109 802.489 479.965 802.187 480.894C800.76 484.752 802.553 489.593 804.694 492.891C807.202 496.749 815.939 502.265 815.958 502.265Z" fill="#CBEFE6"/>
<path d="M711.419 499.989C715.643 501.918 725.981 501.609 726 501.609C726.02 501.609 723.763 494.839 723.57 494.434C721.313 489.69 714.138 481.859 708.294 482.65C707.33 482.806 706.41 483.165 705.594 483.701C704.778 484.237 704.085 484.94 703.559 485.763C703.032 486.586 702.686 487.51 702.541 488.476C702.397 489.442 702.458 490.427 702.72 491.368C703.684 495.418 707.831 498.427 711.419 499.989Z" fill="#CBEFE6"/>
<path d="M727.466 479.043H727.562C727.331 480.701 727.1 482.476 726.887 484.443C726.54 488.05 726.174 492.158 726.058 496.595C725.892 501.413 726.008 506.237 726.405 511.041C726.827 516.42 727.724 521.752 729.086 526.973V527.146C728.16 525.7 725.422 521.707 725.229 521.36C721.776 517.387 712.807 511.716 707.388 514.011C706.496 514.418 705.7 515.008 705.052 515.743C704.403 516.478 703.918 517.342 703.627 518.278C703.335 519.214 703.245 520.201 703.361 521.174C703.477 522.147 703.798 523.085 704.301 523.925C706.23 527.551 711.091 529.364 714.968 529.924C719.346 530.56 728.585 527.995 729.318 527.667C730.827 532.933 732.696 538.088 734.911 543.097C736.165 546.029 737.534 548.884 738.962 551.854C738.113 550.62 737.341 549.539 737.226 549.385C733.792 545.412 724.804 539.741 719.384 542.056C718.481 542.462 717.674 543.057 717.018 543.801C716.363 544.544 715.874 545.419 715.583 546.366C715.293 547.314 715.208 548.313 715.335 549.295C715.462 550.278 715.797 551.223 716.318 552.066C718.247 555.712 723.107 557.505 727.003 558.084C730.899 558.663 738.846 556.522 740.929 555.943C741.488 557.042 742.028 558.161 742.588 559.28C745.249 564.584 747.95 569.888 750.418 575.154C751.286 577.082 752.077 578.876 752.887 580.747C752.135 579.648 751.499 578.818 751.383 578.606C747.95 574.633 738.962 568.962 733.542 571.277C732.653 571.683 731.859 572.273 731.213 573.007C730.567 573.74 730.082 574.602 729.791 575.536C729.5 576.469 729.409 577.453 729.523 578.424C729.638 579.395 729.955 580.331 730.456 581.171C732.384 584.817 737.245 586.611 741.141 587.17C745.037 587.729 752.212 585.839 754.643 585.145C755.395 587.073 756.166 589.002 756.822 590.931C757.227 592.243 757.729 593.477 758.056 594.789C758.384 596.1 758.789 597.412 759.156 598.646C759.754 601.173 760.41 603.757 760.93 606.226C761.316 607.943 761.644 609.582 761.972 611.241C761.123 609.312 759.387 605.763 759.214 605.455C756.417 601.018 748.393 594.056 742.684 595.502C741.745 595.772 740.872 596.236 740.123 596.864C739.375 597.492 738.766 598.27 738.337 599.148C737.908 600.026 737.668 600.985 737.633 601.961C737.597 602.938 737.768 603.911 738.132 604.818C739.559 608.676 744.015 611.241 747.776 612.379C751.904 613.652 761.065 612.495 762.203 612.379C762.763 615.118 763.264 617.78 763.708 620.306C765.097 628.234 766.003 635.004 766.62 640.018H770.574C769.861 634.907 768.78 627.925 767.141 619.67C766.582 616.892 765.945 613.883 765.212 610.894C767.966 609.766 770.652 608.478 773.255 607.036C776.264 610.296 783.998 614.115 784.982 614.597C783.941 617.182 782.899 619.689 781.877 622.023C778.694 629.352 775.743 635.428 773.487 639.941H778.039C780.083 635.544 782.61 629.95 785.291 623.392C786.371 620.769 787.47 617.953 788.57 615.041C789.688 615.272 798.734 617.104 802.958 616.159C806.816 615.291 811.426 613.131 813.142 609.332C813.579 608.453 813.825 607.493 813.864 606.513C813.904 605.534 813.736 604.557 813.372 603.646C813.008 602.736 812.456 601.912 811.751 601.23C811.047 600.548 810.206 600.022 809.285 599.688C803.711 597.759 795.185 604.162 792.061 608.386C791.887 608.637 790.132 611.569 789.148 613.44C789.592 612.244 790.036 611.087 790.479 609.852C791.366 607.441 792.177 604.992 793.064 602.349C793.45 601.076 793.855 599.765 794.24 598.492C794.626 597.219 794.935 595.791 795.282 594.422C796.053 591.24 796.651 587.961 797.211 584.662C799.332 585.434 806.854 588.076 810.866 587.806C814.878 587.536 819.7 586.09 821.957 582.599C822.517 581.799 822.903 580.89 823.089 579.932C823.275 578.973 823.257 577.986 823.037 577.035C822.817 576.084 822.399 575.189 821.811 574.41C821.223 573.631 820.477 572.984 819.623 572.511C814.396 569.811 805.003 574.787 801.28 578.49C801.049 578.722 798.676 581.673 797.423 583.332C797.731 581.403 798.059 579.358 798.31 577.333C799.024 571.547 799.583 565.568 800.239 559.646C800.412 557.833 800.605 556.039 800.798 554.226C801.55 554.516 810.442 557.852 814.917 557.544C818.774 557.274 823.751 555.827 826.027 552.355C826.589 551.554 826.976 550.643 827.163 549.681C827.349 548.72 827.331 547.73 827.109 546.776C826.887 545.822 826.466 544.926 825.874 544.146C825.282 543.366 824.532 542.719 823.673 542.249C818.446 539.548 809.073 544.525 805.331 548.228C805.061 548.517 801.647 552.78 800.837 553.899C801.261 549.925 801.705 545.971 802.322 542.075C803.108 536.824 804.242 531.63 805.717 526.529C806.064 526.664 815.36 530.194 819.912 529.866C823.77 529.596 828.746 528.169 831.003 524.678C831.563 523.876 831.949 522.966 832.135 522.006C832.322 521.046 832.304 520.058 832.084 519.105C831.864 518.152 831.447 517.256 830.858 516.475C830.27 515.694 829.524 515.045 828.669 514.571C823.442 511.87 814.049 516.847 810.326 520.569C810.076 520.801 807.491 524.041 806.276 525.623L805.987 525.468C807.603 520.377 809.669 515.439 812.159 510.713C813.489 508.09 814.917 505.66 816.363 503.326C818.041 504.155 825.718 507.897 829.865 508.051C834.012 508.206 838.834 507.319 841.437 504.098C842.084 503.365 842.569 502.505 842.861 501.572C843.152 500.639 843.244 499.656 843.129 498.686C843.014 497.715 842.696 496.78 842.195 495.941C841.694 495.102 841.022 494.378 840.222 493.817C835.304 490.557 825.448 494.473 821.32 497.675C821.108 497.848 819.025 499.912 817.463 501.436C818.138 500.394 818.794 499.295 819.392 498.311C821.841 494.608 824.329 491.368 826.547 488.513C827.84 486.893 829.016 485.466 830.135 484.135C832.218 484.135 840.531 483.845 844.176 482.206C847.822 480.566 851.891 477.423 852.663 473.353C852.896 472.406 852.929 471.421 852.758 470.461C852.588 469.5 852.218 468.587 851.673 467.778C851.128 466.969 850.42 466.284 849.594 465.766C848.767 465.248 847.842 464.908 846.877 464.77C841.09 464.153 834.07 472.176 831.929 476.979C831.736 477.384 829.595 484.212 829.71 484.212H829.826C828.727 485.466 827.55 486.835 826.297 488.339C824.001 491.155 821.436 494.357 818.89 497.983C816.08 501.904 813.504 505.988 811.175 510.212C808.557 514.933 806.363 519.877 804.617 524.986V525.16C804.617 523.443 804.617 518.621 804.521 518.255C803.846 513.028 799.487 503.365 793.7 502.284C792.733 502.132 791.744 502.184 790.799 502.44C789.853 502.695 788.972 503.147 788.213 503.765C787.454 504.384 786.834 505.156 786.393 506.031C785.953 506.906 785.702 507.864 785.657 508.842C785.31 512.989 788.319 517.136 791.251 519.74C794.549 522.691 803.73 525.526 804.444 525.777C802.803 531.015 801.514 536.357 800.586 541.767C800.007 544.91 799.544 548.112 799.12 551.314C799.12 549.829 799.12 548.479 799.12 548.305C798.445 543.078 794.067 533.415 788.28 532.335C787.314 532.185 786.328 532.24 785.384 532.496C784.441 532.753 783.563 533.205 782.806 533.824C782.049 534.443 781.431 535.214 780.992 536.087C780.552 536.96 780.302 537.916 780.257 538.893C779.909 543.04 782.918 547.186 785.85 549.79C788.782 552.394 796.574 555.037 798.638 555.712L798.175 559.395C797.481 565.298 796.786 571.2 795.957 576.967C795.648 578.992 795.282 580.979 794.935 582.984C794.935 581.654 794.935 580.535 794.935 580.361C794.26 575.154 789.881 565.471 784.095 564.41C783.129 564.257 782.141 564.31 781.196 564.565C780.252 564.821 779.372 565.273 778.614 565.892C777.857 566.511 777.238 567.284 776.8 568.158C776.362 569.033 776.114 569.991 776.071 570.968C775.724 575.096 778.733 579.243 781.665 581.866C784.596 584.489 791.636 586.861 794.086 587.652C793.662 589.677 793.237 591.722 792.736 593.67C792.35 594.981 792.08 596.274 791.617 597.527C791.154 598.781 790.788 600.131 790.383 601.385C789.495 603.815 788.589 606.323 787.663 608.676C787.046 610.315 786.409 611.858 785.734 613.421C786.043 611.492 786.583 607.441 786.583 607.113C786.524 602.484 785.275 597.948 782.957 593.94C782.982 593.43 782.95 592.919 782.861 592.416C782.743 591.445 782.422 590.509 781.917 589.67C781.413 588.832 780.737 588.109 779.934 587.55C779.131 586.991 778.219 586.608 777.257 586.426C776.296 586.244 775.306 586.268 774.355 586.495C768.665 588.019 765.058 598.067 764.711 603.256C764.711 603.564 764.884 606.94 765.058 609.042C764.769 607.808 764.499 606.612 764.19 605.339C763.592 602.812 762.936 600.324 762.261 597.624C761.875 596.332 761.47 595.039 761.085 593.766C760.699 592.493 760.159 591.124 759.696 589.793C758.577 586.707 757.285 583.64 755.838 580.593C758.037 580.053 765.849 578.066 768.973 575.674C772.098 573.283 775.396 569.367 775.358 565.22C775.385 564.243 775.206 563.27 774.833 562.366C774.459 561.461 773.899 560.646 773.19 559.973C772.48 559.299 771.636 558.783 770.714 558.458C769.791 558.132 768.81 558.005 767.835 558.084C762.049 558.72 756.899 568.036 755.838 573.186C755.838 573.514 755.433 577.295 755.279 579.378C754.43 577.545 753.62 575.713 752.714 573.881C750.091 568.615 747.275 563.369 744.497 558.123L741.97 553.281C742.761 553.108 752.077 550.947 755.588 548.247C758.693 545.855 761.991 541.959 761.972 537.793C761.996 536.816 761.816 535.845 761.441 534.942C761.066 534.039 760.506 533.225 759.797 532.552C759.088 531.88 758.246 531.363 757.325 531.037C756.404 530.71 755.424 530.581 754.45 530.657C748.663 531.293 743.513 540.629 742.453 545.778C742.453 546.164 741.874 551.565 741.816 552.992C739.984 549.443 738.171 545.894 736.531 542.307C734.291 537.49 732.358 532.536 730.745 527.474C731.111 527.474 740.852 525.179 744.439 522.421C747.564 520.029 750.862 516.114 750.824 511.967C750.851 510.989 750.672 510.016 750.299 509.112C749.925 508.208 749.365 507.393 748.656 506.719C747.946 506.046 747.102 505.53 746.18 505.204C745.257 504.879 744.276 504.751 743.301 504.83C737.515 505.467 732.365 514.783 731.304 519.933C731.304 520.28 730.861 524.427 730.726 526.394H730.398C728.925 521.256 727.925 515.995 727.408 510.675C727.061 507.743 726.926 504.888 726.83 502.188C728.758 501.976 737.149 500.838 740.659 498.716C744.169 496.595 747.738 493.161 748.162 489.072C748.295 488.103 748.223 487.117 747.95 486.178C747.677 485.238 747.21 484.367 746.579 483.619C745.948 482.872 745.167 482.266 744.287 481.839C743.407 481.413 742.447 481.177 741.469 481.145C735.567 481.145 729.511 489.844 727.968 494.859C727.871 495.129 727.273 497.983 726.887 500.086C726.887 498.851 726.887 497.559 726.887 496.382C726.887 491.927 727.177 487.857 727.447 484.25C727.62 482.187 727.813 480.393 728.025 478.618C729.723 477.442 736.531 472.639 738.634 469.206C740.736 465.773 742.356 461.009 740.832 457.132C740.495 456.212 739.968 455.374 739.285 454.671C738.603 453.968 737.78 453.417 736.87 453.053C735.961 452.689 734.985 452.521 734.006 452.559C733.027 452.597 732.067 452.841 731.189 453.274C725.962 455.975 724.592 466.506 725.402 471.694C725.402 472.215 727.37 479.101 727.466 479.043Z" fill="#CBEFE6"/>
<path d="M457.553 647H375.214L315.73 679.115H405.515L457.553 647Z" fill="#EFEFEF" stroke="#252532" stroke-width="0.779235" stroke-linecap="round" stroke-linejoin="round"/>
<path d="M374.365 654.773H436.607" stroke="#252532" stroke-width="0.779235" stroke-linecap="round" stroke-linejoin="round"/>
<path d="M364.798 659.769H427.04" stroke="#252532" stroke-width="0.779235" stroke-linecap="round" stroke-linejoin="round"/>
<path d="M355.251 664.764H417.493" stroke="#252532" stroke-width="0.779235" stroke-linecap="round" stroke-linejoin="round"/>
<path d="M345.704 669.779H407.945" stroke="#252532" stroke-width="0.779235" stroke-linecap="round" stroke-linejoin="round"/>
<path d="M315.73 679.115V684.65H407.386L405.515 679.115H315.73Z" fill="#EFEFEF" stroke="#252532" stroke-width="0.779235" stroke-linecap="round" stroke-linejoin="round"/>
<path d="M407.386 684.65L459.964 651.726L457.553 647L405.515 679.115L407.386 684.65Z" fill="#EFEFEF" stroke="#252532" stroke-width="0.779235" stroke-linecap="round" stroke-linejoin="round"/>
<path d="M317.216 677.436C317.075 676.882 317.004 676.311 317.003 675.739C317.004 674.477 317.378 673.243 318.08 672.193C318.781 671.144 319.778 670.326 320.945 669.843C322.111 669.36 323.394 669.233 324.633 669.479C325.871 669.726 327.008 670.333 327.901 671.226" stroke="#252532" stroke-width="0.779235" stroke-linecap="round" stroke-linejoin="round"/>
<path d="M325.567 673.579C325.428 673.03 325.357 672.467 325.355 671.901C325.355 670.638 325.73 669.404 326.432 668.355C327.133 667.305 328.13 666.487 329.296 666.004C330.463 665.521 331.746 665.395 332.984 665.641C334.222 665.887 335.36 666.495 336.253 667.387" stroke="#252532" stroke-width="0.779235" stroke-linecap="round" stroke-linejoin="round"/>
<path d="M333.263 669.721C333.117 669.174 333.039 668.61 333.031 668.043C333.037 666.781 333.416 665.549 334.12 664.501C334.824 663.453 335.822 662.637 336.988 662.155C338.155 661.672 339.438 661.546 340.676 661.79C341.915 662.035 343.053 662.64 343.948 663.53" stroke="#252532" stroke-width="0.779235" stroke-linecap="round" stroke-linejoin="round"/>
<path d="M340.631 665.69C340.476 665.145 340.398 664.58 340.399 664.012C340.405 662.75 340.784 661.518 341.488 660.47C342.192 659.422 343.19 658.606 344.356 658.124C345.523 657.641 346.806 657.515 348.044 657.759C349.282 658.004 350.421 658.609 351.316 659.499" stroke="#252532" stroke-width="0.779235" stroke-linecap="round" stroke-linejoin="round"/>
<path d="M348.809 660.946C348.67 660.397 348.598 659.833 348.597 659.267C348.597 658.005 348.972 656.771 349.673 655.722C350.375 654.672 351.372 653.854 352.538 653.371C353.704 652.888 354.988 652.762 356.226 653.008C357.464 653.254 358.601 653.862 359.494 654.754" stroke="#252532" stroke-width="0.779235" stroke-linecap="round" stroke-linejoin="round"/>
<path d="M357.566 656.027C357.41 655.481 357.332 654.916 357.334 654.349C357.334 653.087 357.709 651.853 358.411 650.803C359.112 649.754 360.109 648.936 361.275 648.453C362.442 647.97 363.725 647.843 364.963 648.089C366.201 648.336 367.339 648.943 368.232 649.836" stroke="#252532" stroke-width="0.779235" stroke-linecap="round" stroke-linejoin="round"/>
<path d="M362.272 653.076C362.117 652.53 362.039 651.966 362.04 651.398C362.037 650.134 362.409 648.898 363.109 647.845C363.809 646.793 364.806 645.972 365.973 645.486C367.14 645.001 368.425 644.873 369.665 645.118C370.905 645.364 372.044 645.972 372.938 646.866" stroke="#252532" stroke-width="0.779235" stroke-linecap="round" stroke-linejoin="round"/>
<path d="M468.586 666.192C468.586 666.192 474.854 680.002 464.458 683.975L526.179 723.592C526.179 723.592 532.178 727.045 539.816 720.178C547.453 713.312 541.089 698.248 537.655 696.338C534.222 694.429 468.586 666.192 468.586 666.192Z" fill="#EFEFEF" stroke="#252532" stroke-width="0.779235" stroke-linecap="round" stroke-linejoin="round"/>
<path d="M545.93 634.772L466.078 665.42L529.959 700.138C533.308 702.441 536.096 705.467 538.118 708.991C538.488 709.883 538.778 710.806 538.986 711.749C539.366 713.507 539.224 715.337 538.577 717.015C537.93 718.693 536.807 720.145 535.346 721.192C533.884 722.239 532.148 722.837 530.352 722.91C528.555 722.984 526.776 722.53 525.234 721.605L464.458 684.052C464.458 684.052 458.807 684.052 465.268 688.893C470.63 692.867 511.868 717.941 524.964 725.656C526.29 726.443 527.776 726.921 529.312 727.054C530.848 727.188 532.394 726.974 533.836 726.427L620.959 691.15C622.236 690.307 623.323 689.209 624.153 687.924C624.983 686.639 625.538 685.196 625.781 683.686C626.291 680.677 625.789 677.584 624.355 674.89C622.921 672.196 620.635 670.053 617.854 668.796L545.93 634.772Z" fill="#252532" stroke="#252532" stroke-width="0.779235" stroke-linecap="round" stroke-linejoin="round"/>
<mask id="mask0_81_1401" style="mask-type:luminance" maskUnits="userSpaceOnUse" x="61" y="140" width="194" height="500">
<path d="M254.26 140.35H61.8649V639.112H254.26V140.35Z" fill="white"/>
</mask>
<g mask="url(#mask0_81_1401)">
<path d="M104.24 245.314L92.4167 211.541L104.24 225.891L94.9434 175.241L109.313 211.541L114.366 140.62L122.814 208.165L132.111 194.645V211.541L143.086 188.743L137.164 228.437L147.31 221.686L131.262 243.636L104.24 245.314Z" fill="#CBEFE6"/>
<path d="M141.388 236.885H97.4894L105.378 325.531H133.5L141.388 236.885Z" fill="#252532" stroke="#252532" stroke-width="0.779235" stroke-linecap="round" stroke-linejoin="round"/>
<path d="M223.728 324.509H74.1513V641.349H223.728V324.509Z" fill="#EFEFEF" stroke="#252532" stroke-width="0.779235" stroke-linecap="round" stroke-linejoin="round"/>
<path d="M231.944 324.509H148.949V641.349H231.944V324.509Z" fill="#EFEFEF" stroke="#252532" stroke-width="0.779235" stroke-linecap="round" stroke-linejoin="round"/>
<path d="M222.59 324.509H148.949V641.349H222.59V324.509Z" fill="#252532" stroke="#252532" stroke-width="0.779235" stroke-linecap="round" stroke-linejoin="round"/>
<path d="M214.315 567.708H148.949V632.593H214.315V567.708Z" fill="#2D316B" stroke="#252532" stroke-width="0.779235" stroke-linecap="round" stroke-linejoin="round"/>
<path d="M214.315 571.219H148.949V579.532H214.315V571.219Z" fill="#EFEFEF" stroke="#252532" stroke-width="0.779235" stroke-linecap="round" stroke-linejoin="round"/>
<path d="M214.315 618.975H148.949V627.288H214.315V618.975Z" fill="#EFEFEF" stroke="#252532" stroke-width="0.779235" stroke-linecap="round" stroke-linejoin="round"/>
<path d="M161.351 569.039V651.089" stroke="#252532" stroke-width="0.779235" stroke-linecap="round" stroke-linejoin="round"/>
<path d="M184.149 569.039V651.089" stroke="#252532" stroke-width="0.779235" stroke-linecap="round" stroke-linejoin="round"/>
<path d="M204.151 569.039V651.089" stroke="#252532" stroke-width="0.779235" stroke-linecap="round" stroke-linejoin="round"/>
<path d="M214.315 336.294H148.949V431.691H214.315V336.294Z" fill="#2D316B" stroke="#252532" stroke-width="0.779235" stroke-linecap="round" stroke-linejoin="round"/>
<path d="M214.315 340.287H148.949V349.738H214.315V340.287Z" fill="#EFEFEF" stroke="#252532" stroke-width="0.779235" stroke-linecap="round" stroke-linejoin="round"/>
<path d="M214.315 401.429H148.949V410.88H214.315V401.429Z" fill="#EFEFEF" stroke="#252532" stroke-width="0.779235" stroke-linecap="round" stroke-linejoin="round"/>
<path d="M161.351 337.818V431.036" stroke="#252532" stroke-width="0.779235" stroke-linecap="round" stroke-linejoin="round"/>
<path d="M184.149 337.818V431.036" stroke="#252532" stroke-width="0.779235" stroke-linecap="round" stroke-linejoin="round"/>
<path d="M204.151 337.818V431.036" stroke="#252532" stroke-width="0.779235" stroke-linecap="round" stroke-linejoin="round"/>
<path d="M214.315 451.268H148.949V546.666H214.315V451.268Z" fill="#2D316B" stroke="#252532" stroke-width="0.779235" stroke-linecap="round" stroke-linejoin="round"/>
<path d="M214.315 455.261H148.949V464.712H214.315V455.261Z" fill="#EFEFEF" stroke="#252532" stroke-width="0.779235" stroke-linecap="round" stroke-linejoin="round"/>
<path d="M214.315 516.422H148.949V525.873H214.315V516.422Z" fill="#EFEFEF" stroke="#252532" stroke-width="0.779235" stroke-linecap="round" stroke-linejoin="round"/>
<path d="M161.351 452.792V546.01" stroke="#252532" stroke-width="0.779235" stroke-linecap="round" stroke-linejoin="round"/>
<path d="M184.149 452.792V546.01" stroke="#252532" stroke-width="0.779235" stroke-linecap="round" stroke-linejoin="round"/>
<path d="M204.151 452.792V546.01" stroke="#252532" stroke-width="0.779235" stroke-linecap="round" stroke-linejoin="round"/>
<path d="M223.747 430.38H148.949V441.219H223.747V430.38Z" fill="#EFEFEF" stroke="#252532" stroke-width="0.779235" stroke-linecap="round" stroke-linejoin="round"/>
<path d="M223.747 546.087H148.949V556.927H223.747V546.087Z" fill="#EFEFEF" stroke="#252532" stroke-width="0.779235" stroke-linecap="round" stroke-linejoin="round"/>
<path d="M223.747 324.509V641.349" stroke="#252532" stroke-width="0.779235" stroke-linecap="round" stroke-linejoin="round"/>
<path d="M138.418 324.509V641.349H148.949V336.294H222.455V324.394L138.418 324.509Z" fill="#EFEFEF" stroke="#252532" stroke-width="0.779235" stroke-linecap="round" stroke-linejoin="round"/>
<path d="M148.949 336.294V324.509" stroke="#252532" stroke-width="0.779235" stroke-linecap="round" stroke-linejoin="round"/>
</g>
<path d="M867.63 639.575H12.6812" stroke="#252532" stroke-width="0.779235" stroke-linecap="round" stroke-linejoin="round"/>
<path d="M455.933 510.501H322.269C305.681 509.228 304.678 515.825 304.678 515.825L279.604 639.633H444.63C445.498 633.441 458.518 541.882 460.967 527.089C463.532 511.774 455.933 510.501 455.933 510.501Z" fill="#EFEFEF" stroke="#252532" stroke-width="0.779235" stroke-linecap="round" stroke-linejoin="round"/>
<path d="M455.933 510.501H455.682C454.718 510.501 451.111 511.466 448.912 521.341C446.713 531.216 434.157 616.082 430.685 639.633H444.688C445.556 633.441 458.576 541.882 461.025 527.089C463.532 511.774 455.933 510.501 455.933 510.501Z" fill="#252532" stroke="#252532" stroke-width="0.779235" stroke-linecap="round" stroke-linejoin="round"/>
<path d="M239.197 639.633H394.752C393.942 615.311 390.895 527.61 388.58 516.731C385.919 504.078 379.264 502.092 369.948 501.417C360.632 500.742 353.708 503.153 335.076 503.153C316.444 503.153 298.429 501.224 298.429 501.224C298.429 501.224 291.119 500.549 287.127 500.549C283.134 500.549 280.472 503.211 275.149 503.211C265.59 503.332 256.032 502.887 246.526 501.88C236.535 500.549 224.557 505.872 222.57 515.863C220.835 524.543 216.784 616.661 215.762 640.404H239.158L239.197 639.633Z" fill="#2D316B" stroke="#252532" stroke-width="0.779235" stroke-linecap="round" stroke-linejoin="round"/>
<path d="M284.118 514.822C284.118 514.822 289.615 541.207 304.987 547.785" stroke="#252532" stroke-width="0.779235" stroke-linecap="round" stroke-linejoin="round"/>
<path d="M269.826 510.424C269.826 510.424 262.11 526.915 273.124 551.083" stroke="#252532" stroke-width="0.779235" stroke-linecap="round" stroke-linejoin="round"/>
<path d="M361.037 544.506C361.037 544.506 343.466 589.543 304.987 610.431" stroke="#252532" stroke-width="0.779235" stroke-linecap="round" stroke-linejoin="round"/>
<path d="M288.496 485.851C288.496 485.851 289.827 504.483 291.814 515.13C293.8 525.777 305.122 532.489 317.775 528.439C330.428 524.388 335.732 515.805 336.407 509.807C337.082 503.808 337.063 481.203 337.063 481.203C337.063 481.203 317.061 494.512 288.496 485.851Z" fill="#EFEFEF" stroke="#252532" stroke-width="0.779235" stroke-linecap="round" stroke-linejoin="round"/>
<path d="M356.775 379.846C356.775 379.846 358.588 377.435 353.766 370.202C348.944 362.969 337.487 358.147 337.487 358.147L344.72 367.791C344.72 367.791 324.236 356.951 315.788 356.951C307.34 356.951 286.201 359.96 286.201 359.96L296.443 362.371C296.443 362.371 271.137 370.202 268.128 373.809C265.119 377.416 250.653 389.49 253.662 389.49C256.671 389.49 271.735 387.079 271.735 387.079C271.735 387.079 256.671 401.545 256.671 407.562C256.671 413.58 269.922 442.512 269.922 442.512C269.922 442.512 278.968 458.791 281.977 450.941C284.986 443.091 280.164 424.439 280.781 422.626C281.398 420.813 316.328 417.804 324.159 417.804C331.99 417.804 330.794 436.494 333.803 439.503C336.812 442.512 351.355 447.912 353.708 447.912C356.061 447.912 360.343 446.119 360.343 443.708C360.492 438.547 361.509 433.448 363.352 428.625C365.763 422.588 368.772 417.168 369.37 409.935C369.967 402.702 365.763 386.442 365.763 386.442H371.183C371.183 386.442 365.821 377.435 356.775 379.846Z" fill="#252532" stroke="#252532" stroke-width="0.779235" stroke-linecap="round" stroke-linejoin="round"/>
<path d="M273.027 438.269C273.027 438.269 269.999 426.831 264.579 434.662C261.088 439.715 269.999 459.967 274.821 461.183C279.643 462.398 273.027 438.269 273.027 438.269Z" fill="#EFEFEF" stroke="#252532" stroke-width="0.779235" stroke-linecap="round" stroke-linejoin="round"/>
<path d="M273.027 415.393C273.027 415.393 273.027 459.389 276.036 470.228C279.045 481.068 291.1 497.347 308.575 497.347C326.049 497.347 338.104 488.301 342.926 481.685C347.748 475.07 350.14 461.8 350.14 461.8C350.14 461.8 355.579 466.024 362.195 458.174C368.81 450.324 369.775 436.398 367.016 434.681C362.195 431.672 356.775 435.279 354.364 437.69L349.542 442.512C349.542 442.512 341.711 437.092 341.711 429.859C341.711 422.626 342.926 409.376 342.926 409.376L337.487 412.982L338.104 408.16C338.104 408.16 336.889 409.376 329.656 409.376C322.423 409.376 304.949 410.571 304.949 410.571L313.994 398.517C313.994 398.517 296.52 406.367 290.502 409.973C284.484 413.58 273.027 415.393 273.027 415.393Z" fill="#EFEFEF" stroke="#252532" stroke-width="0.779235" stroke-linecap="round" stroke-linejoin="round"/>
<path d="M295.671 441.798C295.671 445.058 294.379 447.72 292.778 447.72C291.177 447.72 289.885 445.058 289.885 441.798C289.885 438.539 291.177 435.877 292.778 435.877C294.379 435.877 295.671 438.539 295.671 441.798Z" fill="#252532"/>
<path d="M323.561 442.608C323.561 445.868 322.269 448.51 320.668 448.51C319.067 448.51 317.775 445.868 317.775 442.608C317.775 439.349 319.067 436.687 320.668 436.687C322.269 436.687 323.561 439.329 323.561 442.608Z" fill="#252532"/>
<path d="M300.493 455.782C300.493 455.782 300.493 464.249 310.986 462.224" stroke="#252532" stroke-width="0.779235" stroke-linecap="round" stroke-linejoin="round"/>
<path d="M297.272 471.058C297.272 471.058 305.739 476.285 317.447 470.653" stroke="#252532" stroke-width="0.779235" stroke-linecap="round" stroke-linejoin="round"/>
<path d="M282.343 430.36C283.375 428.483 285.021 427.017 287.005 426.209C288.989 425.402 291.191 425.301 293.241 425.924" stroke="#252532" stroke-width="0.779235" stroke-linecap="round" stroke-linejoin="round"/>
<path d="M315.017 425.924C315.017 425.924 324.661 423.108 328.325 429.57" stroke="#252532" stroke-width="0.779235" stroke-linecap="round" stroke-linejoin="round"/>
<path d="M223.766 512.025L197.034 585.646C197.034 585.646 179.906 598.087 178.074 601.308C173.464 609.351 179.462 620.769 184.998 626.729C193.716 636.084 211.441 637.415 222.05 630.471C229.013 625.919 233.102 616.661 235.725 609.042L238.541 544.351" fill="#2D316B"/>
<path d="M223.766 512.025L197.034 585.646C197.034 585.646 179.906 598.087 178.074 601.308C173.464 609.351 179.462 620.769 184.998 626.729C193.716 636.084 211.441 637.415 222.05 630.471C229.013 625.919 233.102 616.661 235.725 609.042L238.541 544.351" stroke="#252532" stroke-width="0.779235" stroke-linecap="round" stroke-linejoin="round"/>
<path d="M185.461 592.108C185.461 592.108 199.174 580.824 221.76 593.728" stroke="#252532" stroke-width="0.779235" stroke-linecap="round" stroke-linejoin="round"/>
<path d="M197.304 597.624L215.415 601.481C215.415 601.481 232.774 594.403 234.297 602.272C235.821 610.142 224.075 612.514 220.912 612.514C217.749 612.514 209.898 611.723 206.755 612.514C203.611 613.305 199.676 617.22 192.597 618.011C192.597 618.011 172.924 625.881 165.054 621.155C157.185 616.43 163.473 599.939 173.715 594.403C183.956 588.867 197.304 597.624 197.304 597.624Z" fill="#EFEFEF" stroke="#252532" stroke-width="0.779235" stroke-linecap="round" stroke-linejoin="round"/>
<path d="M156.973 603.449C156.973 603.449 149.258 598.859 146.828 604.703C144.397 610.547 137.319 624.106 141.736 622.891C146.152 621.676 156.973 603.449 156.973 603.449Z" fill="#EFEFEF" stroke="#252532" stroke-width="0.779235" stroke-linecap="round" stroke-linejoin="round"/>
<path d="M168.989 595.271C168.989 595.271 156.298 593.902 154.813 597.624C152.074 604.548 148.525 623.605 154.041 625.167C159.557 626.729 161.12 614.944 164.264 607.808C166.098 603.731 167.676 599.544 168.989 595.271Z" fill="#EFEFEF" stroke="#252532" stroke-width="0.779235" stroke-linecap="round" stroke-linejoin="round"/>
<path d="M176.068 587.401C176.068 587.401 166.617 586.611 163.473 592.918C160.329 599.225 158.497 624.434 161.544 624.434C164.592 624.434 163.82 626.922 168.546 616.719C170.86 611.723 174.332 595.29 174.332 595.29L176.068 587.401Z" fill="#EFEFEF" stroke="#252532" stroke-width="0.779235" stroke-linecap="round" stroke-linejoin="round"/>
<path d="M199.579 599.765C199.579 599.765 187.042 589.079 183.744 587.247C180.446 585.415 178.209 584.663 174.525 587.98C170.841 591.298 170.108 603.082 167.176 610.45C164.244 617.818 161.274 625.533 164.958 625.533C168.642 625.533 171.959 623.701 174.891 619.747C177.823 615.793 183.378 601.327 183.378 601.327" fill="#EFEFEF"/>
<path d="M199.579 599.765C199.579 599.765 187.042 589.079 183.744 587.247C180.446 585.415 178.209 584.663 174.525 587.98C170.841 591.298 170.108 603.082 167.176 610.45C164.244 617.818 161.274 625.533 164.958 625.533C168.642 625.533 171.959 623.701 174.891 619.747C177.823 615.793 183.378 601.327 183.378 601.327" stroke="#252532" stroke-width="0.779235" stroke-linecap="round" stroke-linejoin="round"/>
<path d="M181.526 608.599C181.526 608.599 185.943 610.527 192.212 606.381L181.526 608.599Z" fill="#EFEFEF"/>
<path d="M181.526 608.599C181.526 608.599 185.943 610.527 192.212 606.381" stroke="#252532" stroke-width="0.779235" stroke-linecap="round" stroke-linejoin="round"/>
<path d="M366.862 500.896C366.862 500.896 381.926 498.003 389.236 505.332C396.546 512.661 417.589 567.632 424.918 586.341C432.248 605.05 439.558 618.281 437.552 627.597C435.546 636.913 420.193 640.231 408.948 640.906C396.16 641.658 387.732 633.576 387.732 630.915C387.732 628.253 383.064 622.274 391.724 601.636L385.726 557.718" fill="#2D316B"/>
<path d="M366.862 500.896C366.862 500.896 381.926 498.003 389.236 505.332C396.546 512.661 417.589 567.632 424.918 586.341C432.248 605.05 439.558 618.281 437.552 627.597C435.546 636.913 420.193 640.231 408.948 640.906C396.16 641.658 387.732 633.576 387.732 630.915C387.732 628.253 383.064 622.274 391.724 601.636L385.726 557.718" stroke="#252532" stroke-width="0.779235" stroke-linecap="round" stroke-linejoin="round"/>
<path d="M406.171 604.606C406.171 604.606 393.518 599.109 391.396 599.109C389.621 601.259 388.586 603.924 388.445 606.708C388.445 610.932 388.87 628.234 390.972 629.082C393.074 629.931 399.42 626.131 403.644 620.229C407.868 614.327 408.697 605.86 406.171 604.606Z" fill="#EFEFEF" stroke="#252532" stroke-width="0.779235" stroke-linecap="round" stroke-linejoin="round"/>
<path d="M396.893 580.998L389.718 639.189L392.283 648.505L396.507 640.481L404.107 581.808C404.21 580.862 403.936 579.914 403.343 579.17C402.751 578.426 401.888 577.946 400.944 577.835C400.469 577.77 399.986 577.801 399.524 577.926C399.061 578.051 398.629 578.267 398.251 578.562C397.874 578.857 397.559 579.224 397.326 579.642C397.093 580.061 396.946 580.522 396.893 580.998Z" fill="#EFEFEF" stroke="#252532" stroke-width="0.779235" stroke-linecap="round" stroke-linejoin="round"/>
<path d="M396.469 640.481L389.718 639.208L392.245 648.505L396.469 640.481Z" fill="#EFEFEF" stroke="#252532" stroke-width="0.779235" stroke-linecap="round" stroke-linejoin="round"/>
<path d="M400.905 577.835C400.432 577.776 399.952 577.812 399.493 577.94C399.034 578.069 398.605 578.288 398.231 578.584C397.858 578.88 397.547 579.248 397.317 579.666C397.088 580.084 396.943 580.543 396.893 581.017L395.967 588.539L403.007 589.948L404.068 581.808C404.171 580.863 403.897 579.914 403.305 579.17C402.712 578.426 401.85 577.946 400.905 577.835Z" fill="#EFEFEF" stroke="#252532" stroke-width="0.779235" stroke-linecap="round" stroke-linejoin="round"/>
<path d="M391.396 599.109C389.294 599.109 385.07 604.606 382.543 607.557C380.016 610.508 380.846 616.835 382.948 621.907C385.051 626.98 385.919 636.257 388.445 636.682C390.972 637.106 393.094 634.579 393.094 629.931C393.094 625.283 392.245 615.581 392.245 615.581" fill="#EFEFEF"/>
<path d="M391.396 599.109C389.294 599.109 385.07 604.606 382.543 607.557C380.016 610.508 380.846 616.835 382.948 621.907C385.051 626.98 385.919 636.257 388.445 636.682C390.972 637.106 393.094 634.579 393.094 629.931C393.094 625.283 392.245 615.581 392.245 615.581" stroke="#252532" stroke-width="0.779235" stroke-linecap="round" stroke-linejoin="round"/>
<path d="M419.672 629.082C419.672 629.082 422.642 637.106 419.267 641.33C415.892 645.554 404.898 643.857 402.795 642.179C400.693 640.501 412.092 637.53 419.672 629.082Z" fill="#EFEFEF" stroke="#252532" stroke-width="0.779235" stroke-linecap="round" stroke-linejoin="round"/>
<path d="M418.418 621.502C419.539 622.74 420.291 624.267 420.587 625.911C420.884 627.554 420.714 629.247 420.096 630.799C417.994 636.277 410.453 640.925 404.898 641.774C399.343 642.622 394.772 639.652 397.318 637.916C399.864 636.18 412.497 627.829 418.418 621.502Z" fill="#EFEFEF" stroke="#252532" stroke-width="0.779235" stroke-linecap="round" stroke-linejoin="round"/>
<path d="M413.346 612.206C413.346 612.206 418.418 616.835 418.418 621.483C418.418 626.131 406.171 637.106 400.269 639.208C394.367 641.311 391.396 639.208 393.094 635.351C394.791 631.493 411.668 612.572 411.668 612.572C411.668 612.572 410.819 611.357 413.346 612.206Z" fill="#EFEFEF" stroke="#252532" stroke-width="0.779235" stroke-linecap="round" stroke-linejoin="round"/>
<path d="M398.996 612.206C398.996 612.206 389.718 628.234 388.445 633.306C387.172 638.379 391.821 638.379 394.772 636.257C397.723 634.136 411.668 617.259 413.346 612.206C415.024 607.152 412.092 601.655 406.595 602.562C401.098 603.468 398.996 612.206 398.996 612.206Z" fill="#EFEFEF" stroke="#252532" stroke-width="0.779235" stroke-linecap="round" stroke-linejoin="round"/>
<path d="M733.349 639.536C736.088 619.554 747.062 539.471 749.3 526.105C751.846 510.79 744.189 509.517 744.189 509.517H610.582C593.995 508.244 592.992 514.841 592.992 514.841L568.574 639.536H733.349Z" fill="#EFEFEF" stroke="#252532" stroke-width="0.779235" stroke-linecap="round" stroke-linejoin="round"/>
<path d="M733.349 639.536C736.088 619.554 747.062 539.471 749.3 526.105C751.846 510.79 744.189 509.517 744.189 509.517H743.938C742.973 509.517 739.367 510.482 737.187 520.357C735.104 529.712 723.551 611.01 719.385 639.536H733.349Z" fill="#252532" stroke="#252532" stroke-width="0.779235" stroke-linecap="round" stroke-linejoin="round"/>
<path d="M461.006 639.536C471.19 628.388 503.651 592.898 511.848 584.682C521.627 574.903 529.072 565.606 529.072 565.606L531.869 639.536H686.788C686.615 638.533 677.877 582.946 670.509 544.679C663.064 506.103 655.619 469.302 638.877 446.041C622.136 422.78 572.335 399.056 572.335 399.056L529.535 432.482C529.535 432.482 516.979 447.372 513.256 461.799C509.534 476.227 500.218 512.97 496.032 527.378C492.175 540.59 444.65 625.36 436.703 639.459L461.006 639.536Z" fill="#2D316B" stroke="#252532" stroke-width="0.779235" stroke-linecap="round" stroke-linejoin="round"/>
<path d="M635.888 512.083C644.143 551.546 651.414 587.845 659.033 626.324" stroke="#252532" stroke-width="0.779235" stroke-linecap="round" stroke-linejoin="round"/>
<path d="M601.459 523.559C607.843 556.348 612.685 592.686 619.011 626.478" stroke="#252532" stroke-width="0.779235" stroke-linecap="round" stroke-linejoin="round"/>
<path d="M563.944 452.599C569.191 510.462 574.013 568.48 580.648 626.189" stroke="#252532" stroke-width="0.779235" stroke-linecap="round" stroke-linejoin="round"/>
<path d="M529.439 468.261C535.225 522.498 540.086 573.321 546.913 626.517" stroke="#252532" stroke-width="0.779235" stroke-linecap="round" stroke-linejoin="round"/>
<path d="M516.921 479.737C516.921 479.737 501.279 549.655 492.927 568.461" stroke="#252532" stroke-width="0.779235" stroke-linecap="round" stroke-linejoin="round"/>
<path d="M521.087 532.952C521.087 532.952 511.713 571.527 504.403 586.167" stroke="#252532" stroke-width="0.779235" stroke-linecap="round" stroke-linejoin="round"/>
<path d="M573.28 419.212L597.274 435.896" stroke="#252532" stroke-width="0.779235" stroke-linecap="round" stroke-linejoin="round"/>
<path d="M529.072 565.606L521.164 502.342" stroke="#252532" stroke-width="0.779235" stroke-linecap="round" stroke-linejoin="round"/>
<path d="M461.006 639.536C470.65 628.947 500.372 596.467 510.247 586.321C501.992 580.921 487.912 571.74 477.979 565.433C463.687 593.168 441.988 630.548 436.742 639.536H461.006Z" fill="#EFEFEF" stroke="#252532" stroke-width="0.779235" stroke-linecap="round" stroke-linejoin="round"/>
<path d="M471.363 577.7C471.363 577.7 498.366 597.238 500.681 597.238C502.995 597.238 516.497 583.737 517.422 580.959C518.348 578.182 484.865 555.365 482.936 555.365C481.007 555.365 471.363 571.2 471.363 577.7Z" fill="#EFEFEF" stroke="#252532" stroke-width="0.779235" stroke-linecap="round" stroke-linejoin="round"/>
<path d="M536.054 447.43L540.703 496.286L549.074 494.434L548.148 483.73" stroke="#252532" stroke-width="0.779235" stroke-linecap="round" stroke-linejoin="round"/>
<path d="M516.516 440.448L514.182 459.523L531.406 441.856L516.516 440.448Z" fill="#EFEFEF" stroke="#252532" stroke-width="0.779235" stroke-linecap="round" stroke-linejoin="round"/>
<path d="M526.275 424.632L516.516 440.448L543.037 450.69L550.462 431.151L526.275 424.632Z" fill="#EFEFEF" stroke="#252532" stroke-width="0.779235" stroke-linecap="round" stroke-linejoin="round"/>
<path d="M456.029 317.623C456.029 317.623 452.307 341.367 453.696 346.015C455.084 350.663 461.141 356.257 461.604 360.442C462.067 364.628 450.918 379.036 454.159 382.758C457.399 386.481 464.4 389.277 464.4 389.277C464.4 389.277 478.365 426.04 484.865 427.429C491.365 428.817 512.33 417.669 512.33 417.669C512.33 417.669 538.369 441.393 539.777 442.743C541.185 444.093 567.223 391.573 567.223 391.573C567.223 391.573 555.651 368.775 555.651 367.367C555.651 365.959 573.801 316.196 572.855 296.195C571.91 276.193 514.703 256.655 503.072 258.506C491.442 260.358 466.792 273.937 466.792 273.937C466.792 273.937 475.626 266.492 468.181 266.955C460.736 267.417 438.4 284.178 439.346 298.586C440.291 312.994 456.029 317.623 456.029 317.623Z" fill="#EFEFEF" stroke="#252532" stroke-width="0.779235" stroke-linecap="round" stroke-linejoin="round"/>
<path d="M535.591 393.463C540.24 380.444 529.998 355.775 530.924 350.2C531.85 344.626 536.517 331.125 544.888 331.125C553.259 331.125 551.87 347.867 550.945 354.849C550.06 359.773 548.324 364.505 545.814 368.832C545.814 368.832 551.292 367.849 555.631 367.174C556.692 362.988 573.704 315.637 572.798 296.253C571.872 276.251 514.645 256.713 503.014 258.564C491.384 260.416 466.734 273.995 466.734 273.995C466.734 273.995 475.568 266.549 468.123 267.012C460.678 267.475 438.343 284.236 439.288 298.644C440.233 313.052 456.029 317.72 456.029 317.72C456.029 317.72 485.81 302.849 496.534 301.441C507.258 300.033 493.293 311.683 492.348 318.202C491.403 324.721 507.779 329.775 513.758 335.407C519.737 341.039 523.517 376.818 519.814 385.188C516.111 393.559 498.405 389.374 490.034 386.114C481.663 382.855 464.439 389.374 464.439 389.374C464.439 389.374 478.403 426.136 484.903 427.525C488.471 428.297 496.341 425.288 502.744 422.433L512.388 417.765C512.388 417.765 530.924 406.501 535.591 393.463Z" fill="#252532" stroke="#252532" stroke-width="0.779235" stroke-linecap="round" stroke-linejoin="round"/>
<path d="M475.973 359.478C476.706 362.468 476.397 365.11 475.279 365.399C474.16 365.689 472.636 363.471 471.903 360.462C471.17 357.453 471.479 354.83 472.598 354.54C473.716 354.251 475.221 356.469 475.973 359.478Z" fill="#252532"/>
<path d="M471.363 397.648C471.363 397.648 480.66 397.648 485.791 390.203" stroke="#7D7D7D" stroke-width="0.779235" stroke-linecap="round" stroke-linejoin="round"/>
<path d="M463.937 347.867C463.937 347.867 465.326 341.367 476.957 345.938" stroke="#252532" stroke-width="1.55847" stroke-linecap="round" stroke-linejoin="round"/>
<path d="M565.353 383.703L533.258 446.504L550.462 467.914L579.78 398.593L565.353 383.703Z" fill="#EFEFEF" stroke="#252532" stroke-width="0.779235" stroke-linecap="round" stroke-linejoin="round"/>
<path d="M603.041 439.985C603.041 439.985 588.614 438.056 583.039 442.319C577.465 446.581 549.074 513.491 549.074 513.491C557.554 515.949 565.147 520.797 570.946 527.455C579.78 538.16 586.376 557.235 586.376 557.235C586.376 557.235 624.064 511.176 631.027 500.934" fill="#2D316B"/>
<path d="M603.041 439.985C603.041 439.985 588.614 438.056 583.039 442.319C577.465 446.581 549.074 513.491 549.074 513.491C557.554 515.949 565.147 520.797 570.946 527.455C579.78 538.16 586.376 557.235 586.376 557.235C586.376 557.235 624.064 511.176 631.027 500.934" stroke="#252532" stroke-width="0.779235" stroke-linecap="round" stroke-linejoin="round"/>
<path d="M605.625 449.475C605.625 449.475 593.108 450.516 588.922 457.826C584.737 465.136 552.372 531.91 552.372 531.91L565.873 543.387C565.873 543.387 594.053 483.903 602.404 473.469C607.877 467.009 615.138 462.312 623.274 459.967" stroke="#252532" stroke-width="0.779235" stroke-linecap="round" stroke-linejoin="round"/>
<path d="M625.453 480.779L579.529 544.428" stroke="#252532" stroke-width="0.779235" stroke-linecap="round" stroke-linejoin="round"/>
<path d="M542.092 510.25C542.092 510.25 529.535 518.158 529.535 526.992C529.535 535.826 540.703 555.924 552.796 565.568C564.89 575.212 575.594 572.55 581.728 568.364C587.861 564.179 602.655 561.845 603.581 545.103C604.507 528.362 581.728 504.155 571.949 500.896C562.17 497.636 542.092 510.25 542.092 510.25Z" fill="#EFEFEF" stroke="#252532" stroke-width="0.779235" stroke-linecap="round" stroke-linejoin="round"/>
<path d="M337.391 565.568C337.391 565.568 332.279 570.216 327.149 573.939C322.018 577.661 316.463 580.458 321.112 582.792C325.76 585.125 330.871 583.254 336.002 582.309C341.132 581.364 347.169 579.995 347.574 576.272C347.98 572.55 347.169 561.421 337.391 565.568Z" fill="#EFEFEF" stroke="#252532" stroke-width="0.779235" stroke-linecap="round" stroke-linejoin="round"/>
<path d="M574.206 563.754C574.206 563.754 581.651 550.716 574.668 537.697C567.686 524.677 554.185 518.621 545.737 518.621C537.289 518.621 394.54 558.624 394.54 558.624C394.54 558.624 351.278 546.53 346.147 548.401C341.017 550.272 310.33 566.995 303.348 570.254C296.365 573.514 296.365 577.699 299.625 578.162C302.885 578.625 311.198 575.848 315.441 574.44C319.684 573.032 333.591 567.94 333.591 567.94C332.42 571.278 331.486 574.694 330.794 578.162C330.794 580.091 343.833 587.015 346.224 587.015C348.616 587.015 356.466 588.404 362.04 586.553C367.614 584.701 359.726 576.774 359.726 576.774L369.485 572.588C369.485 572.588 379.264 577.699 387.635 577.237C392.164 577.136 396.612 576.022 400.654 573.977C400.654 573.977 551.87 569.791 574.206 563.754Z" fill="#EFEFEF" stroke="#252532" stroke-width="0.779235" stroke-linecap="round" stroke-linejoin="round"/>
<path d="M342.135 563.754C342.135 563.754 336.098 575.327 337.487 577.699C338.876 580.072 350.988 586.553 350.988 586.553" stroke="#252532" stroke-width="0.779235" stroke-linecap="round" stroke-linejoin="round"/>
<path d="M351.779 564.217C351.779 564.217 345.723 575.79 347.594 578.162C349.465 580.535 362.002 586.553 362.002 586.553" stroke="#252532" stroke-width="0.779235" stroke-linecap="round" stroke-linejoin="round"/>
<path d="M333.668 567.94L334.594 563.754" stroke="#252532" stroke-width="0.779235" stroke-linecap="round" stroke-linejoin="round"/>
<path d="M323.368 638.225H167.485L108.001 670.358H271.311L323.368 638.225Z" fill="#EFEFEF" stroke="#2D316B" stroke-width="0.779235" stroke-linecap="round" stroke-linejoin="round"/>
<path d="M177.688 646.634H292.778" stroke="#2D316B" stroke-width="0.779235" stroke-linecap="round" stroke-linejoin="round"/>
<path d="M169.298 652.614H284.388" stroke="#2D316B" stroke-width="0.779235" stroke-linecap="round" stroke-linejoin="round"/>
<path d="M160.888 658.612H275.998" stroke="#2D316B" stroke-width="0.779235" stroke-linecap="round" stroke-linejoin="round"/>
<path d="M293.376 646.634L260.413 662.816" stroke="#2D316B" stroke-width="0.779235" stroke-linecap="round" stroke-linejoin="round"/>
<path d="M275.4 646.634L242.437 662.816" stroke="#2D316B" stroke-width="0.779235" stroke-linecap="round" stroke-linejoin="round"/>
<path d="M80.1112 558.238H243.44L271.311 670.358H108.001L80.1112 558.238Z" fill="#252532" stroke="#2D316B" stroke-width="0.779235" stroke-linecap="round" stroke-linejoin="round"/>
<path d="M107.982 678.324H271.311V670.358H107.982V678.324Z" fill="#EFEFEF" stroke="#2D316B" stroke-width="0.779235" stroke-linecap="round" stroke-linejoin="round"/>
<path d="M78.2981 558.238H241.627L269.517 670.358H106.188L78.2981 558.238Z" fill="#EFEFEF" stroke="#2D316B" stroke-width="0.779235" stroke-linecap="round" stroke-linejoin="round"/>
<path d="M271.311 670.358L323.368 638.225V644.821L271.311 678.324V670.358Z" fill="#252532" stroke="#2D316B" stroke-width="0.779235" stroke-linecap="round" stroke-linejoin="round"/>
<path d="M181.005 610.894C181.263 612.566 181.029 614.277 180.333 615.818C179.636 617.36 178.507 618.667 177.083 619.579C175.658 620.492 174 620.971 172.308 620.959C170.616 620.947 168.965 620.445 167.553 619.512C166.142 618.58 165.031 617.257 164.357 615.706C163.682 614.154 163.473 612.441 163.753 610.772C164.034 609.104 164.793 607.553 165.938 606.308C167.083 605.063 168.565 604.177 170.204 603.757C172.582 603.279 175.053 603.761 177.077 605.098C179.101 606.435 180.513 608.519 181.005 610.894Z" stroke="#2D316B" stroke-width="0.779235" stroke-linecap="round" stroke-linejoin="round"/>
</g>
<defs>
<filter id="filter0_d_81_1401" x="0.291573" y="133.539" width="877.728" height="608.944" filterUnits="userSpaceOnUse" color-interpolation-filters="sRGB">
<feFlood flood-opacity="0" result="BackgroundImageFix"/>
<feColorMatrix in="SourceAlpha" type="matrix" values="0 0 0 0 0 0 0 0 0 0 0 0 0 0 0 0 0 0 127 0" result="hardAlpha"/>
<feOffset dx="-1" dy="4"/>
<feGaussianBlur stdDeviation="5.5"/>
<feColorMatrix type="matrix" values="0 0 0 0 0 0 0 0 0 0 0 0 0 0 0 0 0 0 0.85 0"/>
<feBlend mode="normal" in2="BackgroundImageFix" result="effect1_dropShadow_81_1401"/>
<feBlend mode="normal" in="SourceGraphic" in2="effect1_dropShadow_81_1401" result="shape"/>
</filter>
</defs>
</svg>
