<svg width="180" height="183" viewBox="0 0 180 183" fill="none" xmlns="http://www.w3.org/2000/svg">
<g filter="url(#filter0_d_81_1396)">
<ellipse cx="90" cy="81.1675" rx="50" ry="50.9402" fill="#2D316B"/>
</g>
<g clip-path="url(#clip0_81_1396)">
<path d="M98.75 81.1676H82.25V87.0257H98.75V81.1676ZM106.398 67.3461L97.9852 58.3758C97.5984 57.9639 97.0742 57.7351 96.5242 57.7351H96V69.4513H107V68.893C107 68.3163 106.785 67.758 106.398 67.3461ZM93.25 70.1836V57.7351H76.0625C74.9195 57.7351 74 58.7145 74 59.9319V102.403C74 103.621 74.9195 104.6 76.0625 104.6H104.938C106.08 104.6 107 103.621 107 102.403V72.3804H95.3125C94.1781 72.3804 93.25 71.3918 93.25 70.1836ZM79.5 64.3255C79.5 63.9209 79.8077 63.5932 80.1875 63.5932H87.0625C87.4423 63.5932 87.75 63.9209 87.75 64.3255V65.79C87.75 66.1946 87.4423 66.5223 87.0625 66.5223H80.1875C79.8077 66.5223 79.5 66.1946 79.5 65.79V64.3255ZM79.5 70.1836C79.5 69.779 79.8077 69.4513 80.1875 69.4513H87.0625C87.4423 69.4513 87.75 69.779 87.75 70.1836V71.6481C87.75 72.0527 87.4423 72.3804 87.0625 72.3804H80.1875C79.8077 72.3804 79.5 72.0527 79.5 71.6481V70.1836ZM101.5 98.0097C101.5 98.4143 101.192 98.7419 100.812 98.7419H93.9375C93.5577 98.7419 93.25 98.4143 93.25 98.0097V96.5452C93.25 96.1406 93.5577 95.8129 93.9375 95.8129H100.812C101.192 95.8129 101.5 96.1406 101.5 96.5452V98.0097ZM101.5 79.7031V88.4902C101.5 89.2994 100.885 89.9548 100.125 89.9548H80.875C80.1153 89.9548 79.5 89.2994 79.5 88.4902V79.7031C79.5 78.8939 80.1153 78.2385 80.875 78.2385H100.125C100.885 78.2385 101.5 78.8939 101.5 79.7031Z" fill="white"/>
</g>
<defs>
<filter id="filter0_d_81_1396" x="0" y="0.227295" width="180" height="181.88" filterUnits="userSpaceOnUse" color-interpolation-filters="sRGB">
<feFlood flood-opacity="0" result="BackgroundImageFix"/>
<feColorMatrix in="SourceAlpha" type="matrix" values="0 0 0 0 0 0 0 0 0 0 0 0 0 0 0 0 0 0 127 0" result="hardAlpha"/>
<feOffset dy="10"/>
<feGaussianBlur stdDeviation="20"/>
<feColorMatrix type="matrix" values="0 0 0 0 0.212 0 0 0 0 0.238778 0 0 0 0 0.533333 0 0 0 0.06 0"/>
<feBlend mode="normal" in2="BackgroundImageFix" result="effect1_dropShadow_81_1396"/>
<feBlend mode="normal" in="SourceGraphic" in2="effect1_dropShadow_81_1396" result="shape"/>
</filter>
<clipPath id="clip0_81_1396">
<rect width="33" height="46.865" fill="white" transform="translate(74 57.7351)"/>
</clipPath>
</defs>
</svg>
