<svg width="180" height="183" viewBox="0 0 180 183" fill="none" xmlns="http://www.w3.org/2000/svg">
<g filter="url(#filter0_d_81_1388)">
<ellipse cx="90" cy="81.1675" rx="50" ry="50.9402" fill="#F8D162"/>
</g>
<path d="M71.25 78.3659C74.2836 78.3659 76.75 75.8531 76.75 72.7625C76.75 69.6719 74.2836 67.1591 71.25 67.1591C68.2164 67.1591 65.75 69.6719 65.75 72.7625C65.75 75.8531 68.2164 78.3659 71.25 78.3659ZM109.75 78.3659C112.784 78.3659 115.25 75.8531 115.25 72.7625C115.25 69.6719 112.784 67.1591 109.75 67.1591C106.716 67.1591 104.25 69.6719 104.25 72.7625C104.25 75.8531 106.716 78.3659 109.75 78.3659ZM112.5 81.1676H107C105.487 81.1676 104.121 81.7893 103.124 82.7961C106.587 84.7311 109.045 88.2244 109.578 92.3745H115.25C116.771 92.3745 118 91.1225 118 89.5728V86.771C118 83.6804 115.534 81.1676 112.5 81.1676ZM90.5 81.1676C95.8195 81.1676 100.125 76.7812 100.125 71.3616C100.125 65.9421 95.8195 61.5557 90.5 61.5557C85.1805 61.5557 80.875 65.9421 80.875 71.3616C80.875 76.7812 85.1805 81.1676 90.5 81.1676ZM97.1 83.9693H96.3867C94.5992 84.8449 92.6141 85.3702 90.5 85.3702C88.3859 85.3702 86.4094 84.8449 84.6133 83.9693H83.9C78.4344 83.9693 74 88.4871 74 94.0555V96.577C74 98.8972 75.8477 100.78 78.125 100.78H102.875C105.152 100.78 107 98.8972 107 96.577V94.0555C107 88.4871 102.566 83.9693 97.1 83.9693ZM77.8758 82.7961C76.8789 81.7893 75.5125 81.1676 74 81.1676H68.5C65.4664 81.1676 63 83.6804 63 86.771V89.5728C63 91.1225 64.2289 92.3745 65.75 92.3745H71.4133C71.9547 88.2244 74.4125 84.7311 77.8758 82.7961Z" fill="white"/>
<defs>
<filter id="filter0_d_81_1388" x="0" y="0.227295" width="180" height="181.88" filterUnits="userSpaceOnUse" color-interpolation-filters="sRGB">
<feFlood flood-opacity="0" result="BackgroundImageFix"/>
<feColorMatrix in="SourceAlpha" type="matrix" values="0 0 0 0 0 0 0 0 0 0 0 0 0 0 0 0 0 0 127 0" result="hardAlpha"/>
<feOffset dy="10"/>
<feGaussianBlur stdDeviation="20"/>
<feColorMatrix type="matrix" values="0 0 0 0 0.212 0 0 0 0 0.238778 0 0 0 0 0.533333 0 0 0 0.06 0"/>
<feBlend mode="normal" in2="BackgroundImageFix" result="effect1_dropShadow_81_1388"/>
<feBlend mode="normal" in="SourceGraphic" in2="effect1_dropShadow_81_1388" result="shape"/>
</filter>
</defs>
</svg>
