<svg width="180" height="183" viewBox="0 0 180 183" fill="none" xmlns="http://www.w3.org/2000/svg">
<g filter="url(#filter0_d_81_1345)">
<ellipse cx="90" cy="75.1675" rx="50" ry="50.9402" fill="#00CBB8"/>
</g>
<g clip-path="url(#clip0_81_1345)">
<path d="M78 50.7163C77.0532 50.7163 76.2857 51.4983 76.2857 52.4629V55.9559H79.7142V52.4629C79.7142 51.4983 78.9467 50.7163 78 50.7163Z" fill="#F5F5FC"/>
<path d="M102 50.7163C101.053 50.7163 100.286 51.4983 100.286 52.4629V55.9559H103.714V52.4629C103.714 51.4983 102.947 50.7163 102 50.7163Z" fill="#F5F5FC"/>
<path d="M108.857 55.9558H103.714V62.9419C103.714 63.9065 102.947 64.6885 102 64.6885C101.053 64.6885 100.286 63.9065 100.286 62.9419V55.9558H79.7142V62.9419C79.7142 63.9065 78.9467 64.6885 77.9999 64.6885C77.0531 64.6885 76.2856 63.9065 76.2856 62.9419V55.9558H71.1429C68.3025 55.9558 66 58.3016 66 61.1954V94.3793C66 97.273 68.3025 99.6188 71.1429 99.6188H108.857C111.697 99.6188 114 97.273 114 94.3793V61.1954C114 58.3016 111.697 55.9558 108.857 55.9558ZM110.571 94.3793C110.571 95.3439 109.804 96.1258 108.857 96.1258H71.1429C70.196 96.1258 69.4285 95.3439 69.4285 94.3793V71.6745H110.571V94.3793Z" fill="#F5F5FC"/>
<path d="M79.7142 75.1675H76.2857C75.3389 75.1675 74.5714 75.9494 74.5714 76.914C74.5714 77.8786 75.3389 78.6606 76.2857 78.6606H79.7142C80.661 78.6606 81.4286 77.8786 81.4286 76.914C81.4286 75.9494 80.661 75.1675 79.7142 75.1675Z" fill="#F5F5FC"/>
<path d="M91.7143 75.1675H88.2857C87.3389 75.1675 86.5714 75.9494 86.5714 76.914C86.5714 77.8786 87.3389 78.6606 88.2857 78.6606H91.7143C92.6611 78.6606 93.4286 77.8786 93.4286 76.914C93.4286 75.9494 92.6611 75.1675 91.7143 75.1675Z" fill="#F5F5FC"/>
<path d="M103.714 75.1675H100.286C99.339 75.1675 98.5714 75.9494 98.5714 76.914C98.5714 77.8786 99.339 78.6606 100.286 78.6606H103.714C104.661 78.6606 105.429 77.8786 105.429 76.914C105.429 75.9494 104.661 75.1675 103.714 75.1675Z" fill="#F5F5FC"/>
<path d="M79.7142 82.1536H76.2857C75.3389 82.1536 74.5714 82.9355 74.5714 83.9001C74.5714 84.8647 75.3389 85.6467 76.2857 85.6467H79.7142C80.661 85.6467 81.4286 84.8647 81.4286 83.9001C81.4286 82.9355 80.661 82.1536 79.7142 82.1536Z" fill="#F5F5FC"/>
<path d="M91.7143 82.1536H88.2857C87.3389 82.1536 86.5714 82.9355 86.5714 83.9001C86.5714 84.8647 87.3389 85.6467 88.2857 85.6467H91.7143C92.6611 85.6467 93.4286 84.8647 93.4286 83.9001C93.4286 82.9355 92.6611 82.1536 91.7143 82.1536Z" fill="#F5F5FC"/>
<path d="M103.714 82.1536H100.286C99.339 82.1536 98.5714 82.9355 98.5714 83.9001C98.5714 84.8647 99.339 85.6467 100.286 85.6467H103.714C104.661 85.6467 105.429 84.8647 105.429 83.9001C105.429 82.9355 104.661 82.1536 103.714 82.1536Z" fill="#F5F5FC"/>
<path d="M79.7142 89.1396H76.2857C75.3389 89.1396 74.5714 89.9216 74.5714 90.8862C74.5714 91.8508 75.3389 92.6327 76.2857 92.6327H79.7142C80.661 92.6327 81.4286 91.8507 81.4286 90.8861C81.4286 89.9215 80.661 89.1396 79.7142 89.1396Z" fill="#F5F5FC"/>
<path d="M91.7143 89.1396H88.2857C87.3389 89.1396 86.5714 89.9216 86.5714 90.8862C86.5714 91.8508 87.3389 92.6327 88.2857 92.6327H91.7143C92.6611 92.6327 93.4286 91.8508 93.4286 90.8862C93.4286 89.9216 92.6611 89.1396 91.7143 89.1396Z" fill="#F5F5FC"/>
<path d="M103.714 89.1396H100.286C99.339 89.1396 98.5714 89.9216 98.5714 90.8862C98.5714 91.8508 99.339 92.6327 100.286 92.6327H103.714C104.661 92.6327 105.429 91.8508 105.429 90.8862C105.429 89.9216 104.661 89.1396 103.714 89.1396Z" fill="#F5F5FC"/>
</g>
<defs>
<filter id="filter0_d_81_1345" x="0" y="0.227295" width="180" height="181.88" filterUnits="userSpaceOnUse" color-interpolation-filters="sRGB">
<feFlood flood-opacity="0" result="BackgroundImageFix"/>
<feColorMatrix in="SourceAlpha" type="matrix" values="0 0 0 0 0 0 0 0 0 0 0 0 0 0 0 0 0 0 127 0" result="hardAlpha"/>
<feOffset dy="16"/>
<feGaussianBlur stdDeviation="20"/>
<feColorMatrix type="matrix" values="0 0 0 0 0.146118 0 0 0 0 0.172389 0 0 0 0 0.441667 0 0 0 0.1 0"/>
<feBlend mode="normal" in2="BackgroundImageFix" result="effect1_dropShadow_81_1345"/>
<feBlend mode="normal" in="SourceGraphic" in2="effect1_dropShadow_81_1345" result="shape"/>
</filter>
<clipPath id="clip0_81_1345">
<rect width="48" height="48.9026" fill="white" transform="translate(66 50.7163)"/>
</clipPath>
</defs>
</svg>
