<svg width="979" height="977" viewBox="0 0 979 977" fill="none" xmlns="http://www.w3.org/2000/svg">
<g filter="url(#filter0_bd_45_1911)">
<path d="M687.626 140.587C743.944 174.67 784.982 233.662 818.161 295.712C851.34 357.762 876.662 422.871 878.844 489.29C881.027 555.71 860.072 623.004 826.019 683.743C791.967 744.482 744.817 798.23 686.316 830.566C627.816 862.902 557.964 873.826 488.986 872.952C419.571 871.641 351.029 858.095 295.584 824.011C240.576 789.49 198.229 734.869 163.303 675.44C127.941 616.012 100 551.777 100 487.979C100 424.181 127.941 359.947 161.12 297.46C194.736 234.973 233.154 174.233 288.599 139.276C344.044 104.318 416.078 95.5784 487.676 96.0154C559.71 96.4524 631.308 106.066 687.626 140.587Z" fill="url(#paint0_linear_45_1911)"/>
</g>
<defs>
<filter id="filter0_bd_45_1911" x="0" y="0" width="979" height="977" filterUnits="userSpaceOnUse" color-interpolation-filters="sRGB">
<feFlood flood-opacity="0" result="BackgroundImageFix"/>
<feGaussianBlur in="BackgroundImageFix" stdDeviation="10"/>
<feComposite in2="SourceAlpha" operator="in" result="effect1_backgroundBlur_45_1911"/>
<feColorMatrix in="SourceAlpha" type="matrix" values="0 0 0 0 0 0 0 0 0 0 0 0 0 0 0 0 0 0 127 0" result="hardAlpha"/>
<feOffset dy="4"/>
<feGaussianBlur stdDeviation="50"/>
<feComposite in2="hardAlpha" operator="out"/>
<feColorMatrix type="matrix" values="0 0 0 0 0.14902 0 0 0 0 0.196078 0 0 0 0 0.219608 0 0 0 0.15 0"/>
<feBlend mode="normal" in2="effect1_backgroundBlur_45_1911" result="effect2_dropShadow_45_1911"/>
<feBlend mode="normal" in="SourceGraphic" in2="effect2_dropShadow_45_1911" result="shape"/>
</filter>
<linearGradient id="paint0_linear_45_1911" x1="698.331" y1="33.6093" x2="325.008" y2="818.018" gradientUnits="userSpaceOnUse">
<stop offset="0.0857999" stop-color="#E5E6F3"/>
<stop offset="1" stop-color="#B1E2DC"/>
</linearGradient>
</defs>
</svg>
